<svg version="1.1"
xmlns="http://www.w3.org/2000/svg"
xmlns:xlink="http://www.w3.org/1999/xlink"
width="100px" height="100px">

	<defs>
		<path transform="scale(1,-1) scale(0.03)" id="sun-o" unicode="&#xf185;"
			d="M1472 640q0 117 -45.5 223.5t-123 184t-184 123t-223.5 45.5t-223.5 -45.5t-184 -123t-123 -184t-45.5 -223.5t45.5 -223.5t123 -184t184 -123t223.5 -45.5t223.5 45.5t184 123t123 184t45.5 223.5zM1748 363q-4 -15 -20 -20l-292 -96v-306q0 -16 -13 -26q-15 -10 -29 -4 l-292 94l-180 -248q-10 -13 -26 -13t-26 13l-180 248l-292 -94q-14 -6 -29 4q-13 10 -13 26v306l-292 96q-16 5 -20 20q-5 17 4 29l180 248l-180 248q-9 13 -4 29q4 15 20 20l292 96v306q0 16 13 26q15 10 29 4l292 -94l180 248q9 12 26 12t26 -12l180 -248l292 94 q14 6 29 -4q13 -10 13 -26v-306l292 -96q16 -5 20 -20q5 -16 -4 -29l-180 -248l180 -248q9 -12 4 -29z" />
		<path transform="scale(1,-1) scale(0.03)" id="tag" unicode="&#xf02b;"
			d="M448 1088q0 53 -37.5 90.5t-90.5 37.5t-90.5 -37.5t-37.5 -90.5t37.5 -90.5t90.5 -37.5t90.5 37.5t37.5 90.5zM1515 512q0 -53 -37 -90l-491 -492q-39 -37 -91 -37q-53 0 -90 37l-715 716q-38 37 -64.5 101t-26.5 117v416q0 52 38 90t90 38h416q53 0 117 -26.5t102 -64.5 l715 -714q37 -39 37 -91z" />

	</defs>
	<g id="annot-d-gray">
		<g fill="#BBB">
			<use x="18" y="74" xlink:href="#sun-o" />
			<use x="40" y="58" xlink:href="#tag" />
		</g>
	</g>
</svg>