<svg version="1.1"
xmlns="http://www.w3.org/2000/svg"
xmlns:xlink="http://www.w3.org/1999/xlink"
width="100px" height="100px">

	<defs>
		<path transform="scale(1,-1) scale(0.03)" id="glass" unicode="&#xf000;"
			d="M1699 1350q0 -35 -43 -78l-632 -632v-768h320q26 0 45 -19t19 -45t-19 -45t-45 -19h-896q-26 0 -45 19t-19 45t19 45t45 19h320v768l-632 632q-43 43 -43 78q0 23 18 36.5t38 17.5t43 4h1408q23 0 43 -4t38 -17.5t18 -36.5z" />
		<path transform="scale(1,-1) scale(0.03)" id="tag" unicode="&#xf02b;"
			d="M448 1088q0 53 -37.5 90.5t-90.5 37.5t-90.5 -37.5t-37.5 -90.5t37.5 -90.5t90.5 -37.5t90.5 37.5t37.5 90.5zM1515 512q0 -53 -37 -90l-491 -492q-39 -37 -91 -37q-53 0 -90 37l-715 716q-38 37 -64.5 101t-26.5 117v416q0 52 38 90t90 38h416q53 0 117 -26.5t102 -64.5 l715 -714q37 -39 37 -91z" />

	</defs>
	<g id="annot-we-gray">
		<g fill="#BBB">
			<use x="18" y="74" xlink:href="#glass" />
			<use x="40" y="58" xlink:href="#tag" />
		</g>
	</g>
</svg>