<svg version="1.1"
xmlns="http://www.w3.org/2000/svg"
xmlns:xlink="http://www.w3.org/1999/xlink"
width="100px" height="100px">

	<defs>
		<path transform="scale(1,-1) scale(0.026)" id="newspaper-o" unicode="&#xf1ea;"
			d="M1024 1024h-384v-384h384v384zM1152 384v-128h-640v128h640zM1152 1152v-640h-640v640h640zM1792 384v-128h-512v128h512zM1792 640v-128h-512v128h512zM1792 896v-128h-512v128h512zM1792 1152v-128h-512v128h512zM256 192v960h-128v-960q0 -26 19 -45t45 -19t45 19 t19 45zM1920 192v1088h-1536v-1088q0 -33 -11 -64h1483q26 0 45 19t19 45zM2048 1408v-1216q0 -80 -56 -136t-136 -56h-1664q-80 0 -136 56t-56 136v1088h256v128h1792z" />
		<path transform="scale(1,-1) scale(0.03)" id="tag" unicode="&#xf02b;"
			d="M448 1088q0 53 -37.5 90.5t-90.5 37.5t-90.5 -37.5t-37.5 -90.5t37.5 -90.5t90.5 -37.5t90.5 37.5t37.5 90.5zM1515 512q0 -53 -37 -90l-491 -492q-39 -37 -91 -37q-53 0 -90 37l-715 716q-38 37 -64.5 101t-26.5 117v416q0 52 38 90t90 38h416q53 0 117 -26.5t102 -64.5 l715 -714q37 -39 37 -91z" />

	</defs>
	<g id="annot-i-black">
		<g fill="#000">
			<use x="18" y="74" xlink:href="#newspaper-o" />
			<use x="40" y="58" xlink:href="#tag" />
		</g>
	</g>
</svg>