<svg version="1.1"
xmlns="http://www.w3.org/2000/svg"
xmlns:xlink="http://www.w3.org/1999/xlink"
width="100px" height="100px">

	<defs>
		<filter id="bevel-shadow" x="-50%" y="-50%" width="200%" height="200%">
			<feGaussianBlur stdDeviation="1" result="blur"/>
			<feOffset in="blur" dx="1" dy="1" result="blur1"/>
			<feOffset in="blur" dx="0" dy="0" result="blur2"/>

			<feComposite in="blur2" in2="blur1" operator="arithmetic" k2="1" k3="-1" result="diff1"/>
			<feFlood flood-color="black"/>
			<feComposite in2="diff1" operator="in" result="diff1"/>

			<feComposite in="blur1" in2="blur2" operator="arithmetic" k2="1" k3="-1" result="diff2"/>
			<feFlood flood-color="white" flood-opacity="0.5"/>
			<feComposite in2="diff2" operator="in" result="diff2"/>

			<feMorphology operator="erode" radius="2" in="SourceAlpha"/>
			<feGaussianBlur stdDeviation="2" result="blur"/>
			<feOffset dy="3" dx="3"/>
			<feComposite in2="SourceAlpha" operator="arithmetic" k2="-1" k3="1" result="shadowDiff"/>
			<feFlood flood-color="black" flood-opacity=".8"/>
			<feComposite in2="shadowDiff" operator="in" result="shadow"/>

			<feMerge>
				<feMergeNode in="SourceGraphic"/>
				<feMergeNode in="shadow"/>
				<feMergeNode in="diff1"/>
				<feMergeNode in="diff2"/>
			</feMerge>
		</filter>
		<path id="ring" d="M50,0 A50,50 0 1,1 50,100 A50,50 0 0,1 50,00 v10 A40,40 1 0,0 50,90 A40,40 1 1,0 50,10 Z"/>
		<path transform="scale(1,-1) scale(0.03)" id="calendar" unicode="&#xf073;"
			d="M128 -128h288v288h-288v-288zM480 -128h320v288h-320v-288zM128 224h288v320h-288v-320zM480 224h320v320h-320v-320zM128 608h288v288h-288v-288zM864 -128h320v288h-320v-288zM480 608h320v288h-320v-288zM1248 -128h288v288h-288v-288zM864 224h320v320h-320v-320z M512 1088v288q0 13 -9.5 22.5t-22.5 9.5h-64q-13 0 -22.5 -9.5t-9.5 -22.5v-288q0 -13 9.5 -22.5t22.5 -9.5h64q13 0 22.5 9.5t9.5 22.5zM1248 224h288v320h-288v-320zM864 608h320v288h-320v-288zM1248 608h288v288h-288v-288zM1280 1088v288q0 13 -9.5 22.5t-22.5 9.5h-64 q-13 0 -22.5 -9.5t-9.5 -22.5v-288q0 -13 9.5 -22.5t22.5 -9.5h64q13 0 22.5 9.5t9.5 22.5zM1664 1152v-1280q0 -52 -38 -90t-90 -38h-1408q-52 0 -90 38t-38 90v1280q0 52 38 90t90 38h128v96q0 66 47 113t113 47h64q66 0 113 -47t47 -113v-96h384v96q0 66 47 113t113 47 h64q66 0 113 -47t47 -113v-96h128q52 0 90 -38t38 -90z" />
		<path transform="scale(1,-1) scale(0.03)" id="tag" unicode="&#xf02b;"
			d="M448 1088q0 53 -37.5 90.5t-90.5 37.5t-90.5 -37.5t-37.5 -90.5t37.5 -90.5t90.5 -37.5t90.5 37.5t37.5 90.5zM1515 512q0 -53 -37 -90l-491 -492q-39 -37 -91 -37q-53 0 -90 37l-715 716q-38 37 -64.5 101t-26.5 117v416q0 52 38 90t90 38h416q53 0 117 -26.5t102 -64.5 l715 -714q37 -39 37 -91z" />

	</defs>
	<g id="annot-m-bronze">
		<circle fill="#C73" cx="50" cy="50" r="50"/>
		<g fill="#952">
<use xlink:href="#ring" style="filter:url(#bevel-shadow);"/>			<use x="24" y="70" xlink:href="#calendar" style="filter:url(#bevel-shadow);"/>
			<use x="40" y="58" xlink:href="#tag" style="filter:url(#bevel-shadow);"/>
		</g>
	</g>
</svg>