<svg version="1.1"
xmlns="http://www.w3.org/2000/svg"
xmlns:xlink="http://www.w3.org/1999/xlink"
width="100px" height="100px">

	<defs>
		<filter id="bevel-shadow" x="-50%" y="-50%" width="200%" height="200%">
			<feGaussianBlur stdDeviation="1" result="blur"/>
			<feOffset in="blur" dx="1" dy="1" result="blur1"/>
			<feOffset in="blur" dx="0" dy="0" result="blur2"/>

			<feComposite in="blur2" in2="blur1" operator="arithmetic" k2="1" k3="-1" result="diff1"/>
			<feFlood flood-color="black"/>
			<feComposite in2="diff1" operator="in" result="diff1"/>

			<feComposite in="blur1" in2="blur2" operator="arithmetic" k2="1" k3="-1" result="diff2"/>
			<feFlood flood-color="white" flood-opacity="0.5"/>
			<feComposite in2="diff2" operator="in" result="diff2"/>

			<feMorphology operator="erode" radius="2" in="SourceAlpha"/>
			<feGaussianBlur stdDeviation="2" result="blur"/>
			<feOffset dy="3" dx="3"/>
			<feComposite in2="SourceAlpha" operator="arithmetic" k2="-1" k3="1" result="shadowDiff"/>
			<feFlood flood-color="black" flood-opacity=".8"/>
			<feComposite in2="shadowDiff" operator="in" result="shadow"/>

			<feMerge>
				<feMergeNode in="SourceGraphic"/>
				<feMergeNode in="shadow"/>
				<feMergeNode in="diff1"/>
				<feMergeNode in="diff2"/>
			</feMerge>
		</filter>
		<path id="ring" d="M50,0 A50,50 0 1,1 50,100 A50,50 0 0,1 50,00 v10 A40,40 1 0,0 50,90 A40,40 1 1,0 50,10 Z"/>
		<path transform="scale(1,-1) scale(0.026)" id="birthday-cake" unicode="&#xf1fd;"
			d="M1792 128v-384h-1792v384q45 0 85 14t59 27.5t47 37.5q30 27 51.5 38t56.5 11t55.5 -11t52.5 -38q29 -25 47 -38t58 -27t86 -14q45 0 85 14.5t58 27t48 37.5q21 19 32.5 27t31 15t43.5 7q35 0 56.5 -11t51.5 -38q28 -24 47 -37.5t59 -27.5t85 -14t85 14t59 27.5t47 37.5 q30 27 51.5 38t56.5 11q34 0 55.5 -11t51.5 -38q28 -24 47 -37.5t59 -27.5t85 -14zM1792 448v-192q-35 0 -55.5 11t-52.5 38q-29 25 -47 38t-58 27t-85 14q-46 0 -86 -14t-58 -27t-47 -38q-22 -19 -33 -27t-31 -15t-44 -7q-35 0 -56.5 11t-51.5 38q-29 25 -47 38t-58 27 t-86 14q-45 0 -85 -14.5t-58 -27t-48 -37.5q-21 -19 -32.5 -27t-31 -15t-43.5 -7q-35 0 -56.5 11t-51.5 38q-28 24 -47 37.5t-59 27.5t-85 14q-46 0 -86 -14t-58 -27t-47 -38q-30 -27 -51.5 -38t-56.5 -11v192q0 80 56 136t136 56h64v448h256v-448h256v448h256v-448h256v448 h256v-448h64q80 0 136 -56t56 -136zM512 1312q0 -77 -36 -118.5t-92 -41.5q-53 0 -90.5 37.5t-37.5 90.5q0 29 9.5 51t23.5 34t31 28t31 31.5t23.5 44.5t9.5 67q38 0 83 -74t45 -150zM1024 1312q0 -77 -36 -118.5t-92 -41.5q-53 0 -90.5 37.5t-37.5 90.5q0 29 9.5 51 t23.5 34t31 28t31 31.5t23.5 44.5t9.5 67q38 0 83 -74t45 -150zM1536 1312q0 -77 -36 -118.5t-92 -41.5q-53 0 -90.5 37.5t-37.5 90.5q0 29 9.5 51t23.5 34t31 28t31 31.5t23.5 44.5t9.5 67q38 0 83 -74t45 -150z" />
		<path transform="scale(1,-1) scale(0.03)" id="tag" unicode="&#xf02b;"
			d="M448 1088q0 53 -37.5 90.5t-90.5 37.5t-90.5 -37.5t-37.5 -90.5t37.5 -90.5t90.5 -37.5t90.5 37.5t37.5 90.5zM1515 512q0 -53 -37 -90l-491 -492q-39 -37 -91 -37q-53 0 -90 37l-715 716q-38 37 -64.5 101t-26.5 117v416q0 52 38 90t90 38h416q53 0 117 -26.5t102 -64.5 l715 -714q37 -39 37 -91z" />

	</defs>
	<g id="annot-y-silver">
		<circle fill="#BBC" cx="50" cy="50" r="50"/>
		<g fill="#889">
<use xlink:href="#ring" style="filter:url(#bevel-shadow);"/>			<use x="24" y="70" xlink:href="#birthday-cake" style="filter:url(#bevel-shadow);"/>
			<use x="40" y="58" xlink:href="#tag" style="filter:url(#bevel-shadow);"/>
		</g>
	</g>
</svg>