<svg version="1.1"
xmlns="http://www.w3.org/2000/svg"
xmlns:xlink="http://www.w3.org/1999/xlink"
width="100px" height="100px">

	<defs>
		<filter id="bevel-shadow" x="-50%" y="-50%" width="200%" height="200%">
			<feGaussianBlur stdDeviation="1" result="blur"/>
			<feOffset in="blur" dx="1" dy="1" result="blur1"/>
			<feOffset in="blur" dx="0" dy="0" result="blur2"/>

			<feComposite in="blur2" in2="blur1" operator="arithmetic" k2="1" k3="-1" result="diff1"/>
			<feFlood flood-color="black"/>
			<feComposite in2="diff1" operator="in" result="diff1"/>

			<feComposite in="blur1" in2="blur2" operator="arithmetic" k2="1" k3="-1" result="diff2"/>
			<feFlood flood-color="white" flood-opacity="0.5"/>
			<feComposite in2="diff2" operator="in" result="diff2"/>

			<feMorphology operator="erode" radius="2" in="SourceAlpha"/>
			<feGaussianBlur stdDeviation="2" result="blur"/>
			<feOffset dy="3" dx="3"/>
			<feComposite in2="SourceAlpha" operator="arithmetic" k2="-1" k3="1" result="shadowDiff"/>
			<feFlood flood-color="black" flood-opacity=".8"/>
			<feComposite in2="shadowDiff" operator="in" result="shadow"/>

			<feMerge>
				<feMergeNode in="SourceGraphic"/>
				<feMergeNode in="shadow"/>
				<feMergeNode in="diff1"/>
				<feMergeNode in="diff2"/>
			</feMerge>
		</filter>
		<path id="ring" d="M50,0 A50,50 0 1,1 50,100 A50,50 0 0,1 50,00 v10 A40,40 1 0,0 50,90 A40,40 1 1,0 50,10 Z"/>
		<path transform="scale(1,-1) scale(0.03)" id="glass" unicode="&#xf000;"
			d="M1699 1350q0 -35 -43 -78l-632 -632v-768h320q26 0 45 -19t19 -45t-19 -45t-45 -19h-896q-26 0 -45 19t-19 45t19 45t45 19h320v768l-632 632q-43 43 -43 78q0 23 18 36.5t38 17.5t43 4h1408q23 0 43 -4t38 -17.5t18 -36.5z" />
		<path transform="scale(1,-1) scale(0.03)" id="tag" unicode="&#xf02b;"
			d="M448 1088q0 53 -37.5 90.5t-90.5 37.5t-90.5 -37.5t-37.5 -90.5t37.5 -90.5t90.5 -37.5t90.5 37.5t37.5 90.5zM1515 512q0 -53 -37 -90l-491 -492q-39 -37 -91 -37q-53 0 -90 37l-715 716q-38 37 -64.5 101t-26.5 117v416q0 52 38 90t90 38h416q53 0 117 -26.5t102 -64.5 l715 -714q37 -39 37 -91z" />

	</defs>
	<g id="annot-we-jade">
		<circle fill="#0C8" cx="50" cy="50" r="50"/>
		<g fill="#096">
<use xlink:href="#ring" style="filter:url(#bevel-shadow);"/>			<use x="18" y="74" xlink:href="#glass" style="filter:url(#bevel-shadow);"/>
			<use x="40" y="58" xlink:href="#tag" style="filter:url(#bevel-shadow);"/>
		</g>
	</g>
</svg>