<svg version="1.1"
xmlns="http://www.w3.org/2000/svg"
xmlns:xlink="http://www.w3.org/1999/xlink"
width="100px" height="100px">

	<defs>
		<path transform="scale(1,-1) scale(0.03)" id="calendar-o" unicode="&#xf133;"
			d="M128 -128h1408v1024h-1408v-1024zM512 1088v288q0 14 -9 23t-23 9h-64q-14 0 -23 -9t-9 -23v-288q0 -14 9 -23t23 -9h64q14 0 23 9t9 23zM1280 1088v288q0 14 -9 23t-23 9h-64q-14 0 -23 -9t-9 -23v-288q0 -14 9 -23t23 -9h64q14 0 23 9t9 23zM1664 1152v-1280 q0 -52 -38 -90t-90 -38h-1408q-52 0 -90 38t-38 90v1280q0 52 38 90t90 38h128v96q0 66 47 113t113 47h64q66 0 113 -47t47 -113v-96h384v96q0 66 47 113t113 47h64q66 0 113 -47t47 -113v-96h128q52 0 90 -38t38 -90z" />
		<path transform="scale(1,-1) scale(0.03)" id="tag" unicode="&#xf02b;"
			d="M448 1088q0 53 -37.5 90.5t-90.5 37.5t-90.5 -37.5t-37.5 -90.5t37.5 -90.5t90.5 -37.5t90.5 37.5t37.5 90.5zM1515 512q0 -53 -37 -90l-491 -492q-39 -37 -91 -37q-53 0 -90 37l-715 716q-38 37 -64.5 101t-26.5 117v416q0 52 38 90t90 38h416q53 0 117 -26.5t102 -64.5 l715 -714q37 -39 37 -91z" />

	</defs>
	<g id="annot-w-black">
		<g fill="#000">
			<use x="24" y="70" xlink:href="#calendar-o" />
			<use x="40" y="58" xlink:href="#tag" />
		</g>
	</g>
</svg>