<svg version="1.1"
xmlns="http://www.w3.org/2000/svg"
xmlns:xlink="http://www.w3.org/1999/xlink"
width="100px" height="100px">

	<defs>
		<filter id="bevel-shadow" x="-50%" y="-50%" width="200%" height="200%">
			<feGaussianBlur stdDeviation="1" result="blur"/>
			<feOffset in="blur" dx="1" dy="1" result="blur1"/>
			<feOffset in="blur" dx="0" dy="0" result="blur2"/>

			<feComposite in="blur2" in2="blur1" operator="arithmetic" k2="1" k3="-1" result="diff1"/>
			<feFlood flood-color="black"/>
			<feComposite in2="diff1" operator="in" result="diff1"/>

			<feComposite in="blur1" in2="blur2" operator="arithmetic" k2="1" k3="-1" result="diff2"/>
			<feFlood flood-color="white" flood-opacity="0.5"/>
			<feComposite in2="diff2" operator="in" result="diff2"/>

			<feMorphology operator="erode" radius="2" in="SourceAlpha"/>
			<feGaussianBlur stdDeviation="2" result="blur"/>
			<feOffset dy="3" dx="3"/>
			<feComposite in2="SourceAlpha" operator="arithmetic" k2="-1" k3="1" result="shadowDiff"/>
			<feFlood flood-color="black" flood-opacity=".8"/>
			<feComposite in2="shadowDiff" operator="in" result="shadow"/>

			<feMerge>
				<feMergeNode in="SourceGraphic"/>
				<feMergeNode in="shadow"/>
				<feMergeNode in="diff1"/>
				<feMergeNode in="diff2"/>
			</feMerge>
		</filter>
		<path id="ring" d="M50,0 A50,50 0 1,1 50,100 A50,50 0 0,1 50,00 v10 A40,40 1 0,0 50,90 A40,40 1 1,0 50,10 Z"/>
		<path transform="scale(1,-1) scale(0.03)" id="calendar-o" unicode="&#xf133;"
			d="M128 -128h1408v1024h-1408v-1024zM512 1088v288q0 14 -9 23t-23 9h-64q-14 0 -23 -9t-9 -23v-288q0 -14 9 -23t23 -9h64q14 0 23 9t9 23zM1280 1088v288q0 14 -9 23t-23 9h-64q-14 0 -23 -9t-9 -23v-288q0 -14 9 -23t23 -9h64q14 0 23 9t9 23zM1664 1152v-1280 q0 -52 -38 -90t-90 -38h-1408q-52 0 -90 38t-38 90v1280q0 52 38 90t90 38h128v96q0 66 47 113t113 47h64q66 0 113 -47t47 -113v-96h384v96q0 66 47 113t113 47h64q66 0 113 -47t47 -113v-96h128q52 0 90 -38t38 -90z" />
		<path transform="scale(1,-1) scale(0.026)" id="book" unicode="&#xf02d;"
			d="M1639 1058q40 -57 18 -129l-275 -906q-19 -64 -76.5 -107.5t-122.5 -43.5h-923q-77 0 -148.5 53.5t-99.5 131.5q-24 67 -2 127q0 4 3 27t4 37q1 8 -3 21.5t-3 19.5q2 11 8 21t16.5 23.5t16.5 23.5q23 38 45 91.5t30 91.5q3 10 0.5 30t-0.5 28q3 11 17 28t17 23 q21 36 42 92t25 90q1 9 -2.5 32t0.5 28q4 13 22 30.5t22 22.5q19 26 42.5 84.5t27.5 96.5q1 8 -3 25.5t-2 26.5q2 8 9 18t18 23t17 21q8 12 16.5 30.5t15 35t16 36t19.5 32t26.5 23.5t36 11.5t47.5 -5.5l-1 -3q38 9 51 9h761q74 0 114 -56t18 -130l-274 -906 q-36 -119 -71.5 -153.5t-128.5 -34.5h-869q-27 0 -38 -15q-11 -16 -1 -43q24 -70 144 -70h923q29 0 56 15.5t35 41.5l300 987q7 22 5 57q38 -15 59 -43zM575 1056q-4 -13 2 -22.5t20 -9.5h608q13 0 25.5 9.5t16.5 22.5l21 64q4 13 -2 22.5t-20 9.5h-608q-13 0 -25.5 -9.5 t-16.5 -22.5zM492 800q-4 -13 2 -22.5t20 -9.5h608q13 0 25.5 9.5t16.5 22.5l21 64q4 13 -2 22.5t-20 9.5h-608q-13 0 -25.5 -9.5t-16.5 -22.5z" />

	</defs>
	<g id="media-w-bronze">
		<circle fill="#C73" cx="50" cy="50" r="50"/>
		<g fill="#952">
<use xlink:href="#ring" style="filter:url(#bevel-shadow);"/>			<use x="28" y="70" xlink:href="#calendar-o" style="filter:url(#bevel-shadow);"/>
			<use x="22" y="52" xlink:href="#book" style="filter:url(#bevel-shadow);"/>
		</g>
	</g>
</svg>