<svg version="1.1"
xmlns="http://www.w3.org/2000/svg"
xmlns:xlink="http://www.w3.org/1999/xlink"
width="100px" height="100px">

	<defs>
		<path transform="scale(1,-1) scale(0.03)" id="sun-o" unicode="&#xf185;"
			d="M1472 640q0 117 -45.5 223.5t-123 184t-184 123t-223.5 45.5t-223.5 -45.5t-184 -123t-123 -184t-45.5 -223.5t45.5 -223.5t123 -184t184 -123t223.5 -45.5t223.5 45.5t184 123t123 184t45.5 223.5zM1748 363q-4 -15 -20 -20l-292 -96v-306q0 -16 -13 -26q-15 -10 -29 -4 l-292 94l-180 -248q-10 -13 -26 -13t-26 13l-180 248l-292 -94q-14 -6 -29 4q-13 10 -13 26v306l-292 96q-16 5 -20 20q-5 17 4 29l180 248l-180 248q-9 13 -4 29q4 15 20 20l292 96v306q0 16 13 26q15 10 29 4l292 -94l180 248q9 12 26 12t26 -12l180 -248l292 94 q14 6 29 -4q13 -10 13 -26v-306l292 -96q16 -5 20 -20q5 -16 -4 -29l-180 -248l180 -248q9 -12 4 -29z" />
		<path transform="scale(1,-1) scale(0.026)" id="book" unicode="&#xf02d;"
			d="M1639 1058q40 -57 18 -129l-275 -906q-19 -64 -76.5 -107.5t-122.5 -43.5h-923q-77 0 -148.5 53.5t-99.5 131.5q-24 67 -2 127q0 4 3 27t4 37q1 8 -3 21.5t-3 19.5q2 11 8 21t16.5 23.5t16.5 23.5q23 38 45 91.5t30 91.5q3 10 0.5 30t-0.5 28q3 11 17 28t17 23 q21 36 42 92t25 90q1 9 -2.5 32t0.5 28q4 13 22 30.5t22 22.5q19 26 42.5 84.5t27.5 96.5q1 8 -3 25.5t-2 26.5q2 8 9 18t18 23t17 21q8 12 16.5 30.5t15 35t16 36t19.5 32t26.5 23.5t36 11.5t47.5 -5.5l-1 -3q38 9 51 9h761q74 0 114 -56t18 -130l-274 -906 q-36 -119 -71.5 -153.5t-128.5 -34.5h-869q-27 0 -38 -15q-11 -16 -1 -43q24 -70 144 -70h923q29 0 56 15.5t35 41.5l300 987q7 22 5 57q38 -15 59 -43zM575 1056q-4 -13 2 -22.5t20 -9.5h608q13 0 25.5 9.5t16.5 22.5l21 64q4 13 -2 22.5t-20 9.5h-608q-13 0 -25.5 -9.5 t-16.5 -22.5zM492 800q-4 -13 2 -22.5t20 -9.5h608q13 0 25.5 9.5t16.5 22.5l21 64q4 13 -2 22.5t-20 9.5h-608q-13 0 -25.5 -9.5t-16.5 -22.5z" />

	</defs>
	<g id="media-d-gray">
		<g fill="#BBB">
			<use x="30" y="74" xlink:href="#sun-o" />
			<use x="22" y="52" xlink:href="#book" />
		</g>
	</g>
</svg>